<?xml version="1.0" encoding="utf-8"?>
<!-- Generator: Adobe Illustrator 25.4.1, SVG Export Plug-In . SVG Version: 6.00 Build 0)  -->
<svg version="1.1" id="Layer_1" xmlns="http://www.w3.org/2000/svg" xmlns:xlink="http://www.w3.org/1999/xlink" x="0px" y="0px"
	 viewBox="0 0 60 60" style="enable-background:new 0 0 60 60;" xml:space="preserve">
<style type="text/css">
	.st0{fill-rule:evenodd;clip-rule:evenodd;fill:#6A6779;}
	.st1{fill-rule:evenodd;clip-rule:evenodd;fill:#C6C4CF;}
	.st2{fill-rule:evenodd;clip-rule:evenodd;fill:#9D9BAB;}
	.st3{fill-rule:evenodd;clip-rule:evenodd;fill:#B29E60;}
	.st4{fill-rule:evenodd;clip-rule:evenodd;fill:#E0C977;}
	.st5{fill-rule:evenodd;clip-rule:evenodd;fill:#F4D984;}
	.st6{fill-rule:evenodd;clip-rule:evenodd;fill:#292E35;}
</style>
<path class="st0" d="M44.7,33.9L58,41.7L26.9,52l17.9-10.7L44.7,33.9z"/>
<path class="st1" d="M7.8,17.6l24.8,14.3v16.7L7.8,34.4V17.6z"/>
<path class="st2" d="M32.5,31.9l6.1-10.7l6,3.3l0.1,16.8l-12.3,7.3V31.9z"/>
<path class="st3" d="M26.9,44.4V52l5.6-3.3v-7.6L26.9,44.4z"/>
<path class="st4" d="M2,30.1l24.9,14.3l5.6-3.4L7.8,26.8L2,30.1z"/>
<path class="st5" d="M2,37.8L26.9,52v-7.6L2,30.1V37.8z"/>
<path class="st6" d="M7.8,17.6l24.8,14.3l6.1-10.7L13.9,7L7.8,17.6z"/>
</svg>
