<?xml version="1.0" encoding="utf-8"?>
<!-- Generator: Adobe Illustrator 25.4.1, SVG Export Plug-In . SVG Version: 6.00 Build 0)  -->
<svg version="1.1" id="Layer_1" xmlns="http://www.w3.org/2000/svg" xmlns:xlink="http://www.w3.org/1999/xlink" x="0px" y="0px"
	 viewBox="0 0 60 60" style="enable-background:new 0 0 60 60;" xml:space="preserve">
<style type="text/css">
	.st0{fill-rule:evenodd;clip-rule:evenodd;fill:#F4D984;}
	.st1{fill-rule:evenodd;clip-rule:evenodd;fill:#E0C977;}
	.st2{fill-rule:evenodd;clip-rule:evenodd;fill:#B29E60;}
</style>
<path class="st0" d="M1.1,37l8.7,5l0-8.3l-8.7-5.1V37z"/>
<path class="st1" d="M9.1,24l8.6,4.9l-7.9,4.8l-8.7-5.1L9.1,24z"/>
<path class="st2" d="M9.8,33.7V42l7.9-4.9v-8.3L9.8,33.7z"/>
<path class="st0" d="M21.7,37l8.7,5l0-8.3l-8.7-5.1V37z"/>
<path class="st1" d="M29.7,24l8.6,4.9l-7.9,4.8l-8.7-5.1L29.7,24z"/>
<path class="st2" d="M30.4,33.7V42l7.9-4.9v-8.3L30.4,33.7z"/>
<path class="st0" d="M42.3,37l8.7,5l0-8.3l-8.7-5.1V37z"/>
<path class="st1" d="M50.3,24l8.6,4.9L51,33.7l-8.7-5.1L50.3,24z"/>
<path class="st2" d="M50.9,33.7V42l7.9-4.9v-8.3L50.9,33.7z"/>
</svg>
