<?xml version="1.0" encoding="utf-8"?>
<!-- Generator: Adobe Illustrator 25.4.1, SVG Export Plug-In . SVG Version: 6.00 Build 0)  -->
<svg version="1.1" id="Layer_1" xmlns="http://www.w3.org/2000/svg" xmlns:xlink="http://www.w3.org/1999/xlink" x="0px" y="0px"
	 viewBox="0 0 60 60" style="enable-background:new 0 0 60 60;" xml:space="preserve">
<style type="text/css">
	.st0{fill-rule:evenodd;clip-rule:evenodd;fill:#C6C4CF;}
	.st1{fill-rule:evenodd;clip-rule:evenodd;fill:#9D9BAB;}
	.st2{fill-rule:evenodd;clip-rule:evenodd;fill:#292E35;}
	.st3{fill-rule:evenodd;clip-rule:evenodd;fill:#6A6779;}
	.st4{fill-rule:evenodd;clip-rule:evenodd;fill:#B29E60;}
	.st5{fill-rule:evenodd;clip-rule:evenodd;fill:#E0C977;}
</style>
<path class="st0" d="M20.9,29.9l19.3,10.9V28.1L20.9,17.2V29.9z"/>
<path class="st1" d="M40.1,28.1v12.7l9.6-5.4V22.6L45,19.9L40.1,28.1z"/>
<path class="st2" d="M25.7,9l-4.8,8.2l19.3,10.9l4.8-8.2L25.7,9z"/>
<path class="st3" d="M49.8,35.3l-9.6,5.4L58,36.4l-8.2-4.6V35.3z"/>
<path class="st0" d="M11.4,34.6l19.3,10.9V32.8L11.4,21.9V34.6z"/>
<path class="st4" d="M30.9,32l-0.2,13.5l9.4-4.7l0.2-12.9l-4.8-3.3L30.9,32z"/>
<path class="st5" d="M16.2,13.7l-4.8,8.2l19.3,10.9l4.8-8.2L16.2,13.7z"/>
<path class="st3" d="M30.7,45.5l17.9-4.4l-1.7-3.6L30.7,45.5z"/>
<path class="st0" d="M2,39.3l19.3,10.9V37.5L2,26.6V39.3z"/>
<path class="st1" d="M21.3,37.5v12.7l9.4-4.7l0.2-13.1l-4.8-3.1L21.3,37.5z"/>
<path class="st2" d="M6.8,18.4L2,26.6l19.3,10.9l4.8-8.2L6.8,18.4z"/>
<path class="st3" d="M21.3,50.2l17.9-4.4l-4.3-2.3L21.3,50.2z"/>
</svg>
